<?xml version="1.0" encoding="UTF-8" standalone="no"?>
<!DOCTYPE svg PUBLIC "-//W3C//DTD SVG 1.1//EN" "http://www.w3.org/Graphics/SVG/1.1/DTD/svg11.dtd">
<svg width="100%" height="100%" viewBox="0 0 180 180" version="1.1" xmlns="http://www.w3.org/2000/svg" xmlns:xlink="http://www.w3.org/1999/xlink" xml:space="preserve" xmlns:serif="http://www.serif.com/" style="fill-rule:evenodd;clip-rule:evenodd;stroke-linejoin:round;stroke-miterlimit:2;">
    <g transform="matrix(1.70052,0,0,1.70052,-63.0464,-63.0464)">
        <path d="M68.926,108.461L68.926,124.276C68.926,128.868 66.685,131.164 62.202,131.164C57.829,131.164 55.642,128.868 55.642,124.276L55.642,109.353L68.926,108.461Z" style="fill:rgb(168,218,220);"/>
    </g>
    <g transform="matrix(1.70052,0,0,1.70052,-63.0464,-63.0464)">
        <path d="M69.012,82.043C68.955,82.871 68.926,83.72 68.926,84.588L68.926,111.219C64.669,113.428 59.402,115.507 55.642,116.528L55.642,85.746C59.841,83.801 65.734,82.392 69.012,82.043Z" style="fill:rgb(7,59,76);"/>
    </g>
    <g transform="matrix(1.70052,0,0,1.70052,-63.0464,-63.0464)">
        <path d="M55.642,87.023L55.642,55.888C55.642,51.405 57.774,49.164 62.038,49.164C66.411,49.164 68.598,51.405 68.598,55.888L68.598,63.924C71.019,59.283 74.371,55.713 78.654,53.214C79.853,55.908 81.203,59.137 82.246,61.676C79.653,62.801 77.372,64.398 75.404,66.466C71.155,70.93 68.996,76.85 68.928,84.226L55.642,87.023Z" style="fill:rgb(17,138,178);"/>
    </g>
    <g transform="matrix(1.70052,0,0,1.70052,-63.0464,-63.0464)">
        <path d="M75.803,55.142C77.025,54.19 78.34,53.345 79.75,52.608C84.561,50.093 89.973,48.836 95.986,48.836C109.913,48.836 118.713,54.526 122.384,65.905C119.325,69.202 114.814,73.019 110.772,75.681C110.21,70.98 108.862,67.362 106.728,64.826C103.831,61.382 99.211,59.66 92.87,59.66C87.868,59.66 83.567,60.718 79.968,62.833C77.917,60.35 76.235,57.677 75.803,55.142Z" style="fill:rgb(6,214,160);"/>
    </g>
    <g transform="matrix(1.70052,0,0,1.70052,-63.0464,-63.0464)">
        <path d="M107.881,66.424C109.033,65.135 110.688,63.975 113,63C115.91,61.773 118.535,61.548 120.81,61.992C123.176,66.791 124.358,72.901 124.358,80.324L124.358,112.534C120.46,113.733 115.265,115.058 111.074,115L111.074,81.144C111.074,74.772 110.01,69.865 107.881,66.424Z" style="fill:rgb(255,209,102);"/>
    </g>
    <g transform="matrix(1.70052,0,0,1.70052,-63.0464,-63.0464)">
        <path d="M111.074,101.007C111.37,100.991 111.678,100.988 112,101C116.677,101.17 120.998,103.231 124.358,106.975L124.358,124.276C124.358,128.868 122.171,131.164 117.798,131.164C113.315,131.164 111.074,128.868 111.074,124.276L111.074,101.007Z" style="fill:rgb(239,71,111);"/>
    </g>
</svg>
